####
#
# OBJ File Generated by Meshlab
#
####
# Object strada.obj
#
# Vertices: 12
# Faces: 10
#
####
mtllib ./strada.obj.mtl

vn 1.570763 1.570793 0.000000
v 1.000000 0.272472 -28.694075 0.752941 0.752941 0.752941
vn 1.570828 1.570801 0.000000
v 1.000000 0.272472 28.694069 0.752941 0.752941 0.752941
vn 0.000000 1.570796 0.000000
v 2.718511 0.272472 28.694069 0.752941 0.752941 0.752941
vn 0.000000 1.570798 0.000000
v 2.718511 0.272472 -28.694075 0.752941 0.752941 0.752941
vn 1.570832 1.570795 0.000000
v 1.000001 0.753218 -28.694057 0.752941 0.752941 0.752941
vn 1.570767 1.570797 0.000000
v 0.999999 0.753218 28.694084 0.752941 0.752941 0.752941
vn -1.570735 1.554414 0.000000
v -9.253553 0.753218 28.694057 0.752941 0.752941 0.752941
vn -1.570709 1.554410 0.000000
v -9.253553 0.753218 -28.694077 0.752941 0.752941 0.752941
vn -1.570715 -0.016386 0.000000
v -9.248538 0.272472 -28.694075 0.752941 0.752941 0.752941
vn -1.570689 -0.016386 0.000000
v -9.248538 0.272472 28.694069 0.752941 0.752941 0.752941
vn 0.000000 3.141591 0.000000
v -8.784247 0.753218 -28.694077 0.752941 0.752941 0.752941
vn 0.000000 3.141591 0.000000
v -8.784247 0.753218 28.694059 0.752941 0.752941 0.752941
# 12 vertices, 0 vertices normals


usemtl material_0
vt -6.993765 0.769613
vt -6.994521 0.807904
vt 8.193547 0.807887
f 11/1/11 8/2/8 7/3/7
vt 8.194304 0.769605
f 11/1/11 7/3/7 12/4/12
vt -7.292268 0.844348
vt -7.291526 0.807934
vt 7.896542 0.807849
f 1/5/1 5/6/5 6/7/6
vt 7.895800 0.844262
f 1/5/1 6/7/6 2/8/2
vt 7.895068 0.994950
vt -7.293001 0.995036
f 2/8/2 3/9/3 4/10/4
f 2/8/2 4/10/4 1/5/1
vt 8.195347 0.769909
vt 8.192924 0.807877
vt -6.995558 0.807489
f 10/11/10 7/12/7 8/13/8
vt -6.993140 0.769521
f 10/11/10 8/13/8 9/14/9
vt -7.292282 0.037814
vt 7.895785 0.037729
f 5/6/5 11/15/11 12/16/12
f 5/6/5 12/16/12 6/7/6
# 10 faces, 16 coords texture

# End of File