####
#
# OBJ File Generated by Meshlab
#
####
# Object strada.obj
#
# Vertices: 8
# Faces: 12
#
####
mtllib ./strada.mtl

vn 1.570796 1.570796 1.570796
v 2.000000 5.050010 5.050011 0.752941 0.752941 0.752941
vn -1.570792 -1.570796 1.570797
v 0.000000 4.950011 5.050011 0.752941 0.752941 0.752941
vn -1.570796 1.570796 1.570796
v 0.000000 5.050010 5.050011 0.752941 0.752941 0.752941
vn 1.570834 -1.570856 -1.570795
v 2.000000 4.950005 -4.949996 0.752941 0.752941 0.752941
vn 1.570754 1.570737 -1.570796
v 2.000000 5.050006 -4.950000 0.752941 0.752941 0.752941
vn -1.570754 1.570736 -1.570797
v 0.000000 5.050006 -4.950000 0.752941 0.752941 0.752941
vn -1.570834 -1.570856 -1.570795
v 0.000000 4.950005 -4.949996 0.752941 0.752941 0.752941
vn 1.570792 -1.570796 1.570797
v 2.000000 4.950011 5.050011 0.752941 0.752941 0.752941
# 8 vertices, 0 vertices normals


usemtl materiale
vt 0.000000 0.000000
f 2/1/2 8/1/8 1/1/1
f 3/1/3 2/1/2 1/1/1
f 3/1/3 1/1/1 5/1/5
f 6/1/6 3/1/3 5/1/5
f 8/1/8 4/1/4 5/1/5
f 1/1/1 8/1/8 5/1/5
f 7/1/7 4/1/4 2/1/2
f 2/1/2 4/1/4 8/1/8
f 3/1/3 6/1/6 2/1/2
f 2/1/2 6/1/6 7/1/7
f 6/1/6 5/1/5 7/1/7
f 7/1/7 5/1/5 4/1/4
# 12 faces, 1 coords texture

# End of File
